<?xml version="1.0" encoding="utf-8"?>
<!-- Generator: Adobe Illustrator 24.1.1, SVG Export Plug-In . SVG Version: 6.00 Build 0)  -->
<svg version="1.1" id="Layer_1" xmlns="http://www.w3.org/2000/svg" xmlns:xlink="http://www.w3.org/1999/xlink" x="0px" y="0px"
	 viewBox="0 0 512 512" style="enable-background:new 0 0 512 512;" xml:space="preserve">
<style type="text/css">
	.st0{fill:#EE4C2C;}
</style>
<g>
	<path class="st0" d="M405.4,149.1c83.2,83.2,83.2,216.7,0,300.5c-81.5,83.2-215.5,83.2-298.8,0c-83.2-83.2-83.2-217.3,0-300.5
		L255.7,0v74.5l-13.9,13.9L143,187.2c-62.4,61.3-62.4,161.8,0,224.2c61.3,62.4,161.8,62.4,224.2,0c62.4-61.3,62.4-161.8,0-224.2
		L405.4,149.1z M330.8,139.8c-15.3,0-27.7-12.4-27.7-27.7c0-15.3,12.4-27.7,27.7-27.7c15.3,0,27.7,12.4,27.7,27.7
		C358.6,127.4,346.2,139.8,330.8,139.8z"/>
</g>
</svg>
