<?xml version="1.0" encoding="utf-8"?>
<!-- Generator: Adobe Illustrator 24.1.1, SVG Export Plug-In . SVG Version: 6.00 Build 0)  -->
<svg version="1.1" id="Layer_1" xmlns="http://www.w3.org/2000/svg" xmlns:xlink="http://www.w3.org/1999/xlink" x="0px" y="0px"
	 viewBox="0 0 512 512" style="enable-background:new 0 0 512 512;" xml:space="preserve">
<style type="text/css">
	.st0{fill:#E55B2D;}
	.st1{fill:#ED8E24;}
	.st2{fill:#F8BF3C;}
</style>
<g>
	<path class="st0" d="M290.1,78.8v78.8l136.4,78.8v-78.8L290.1,78.8z M17.2,157.5v78.8l68.2,39.4v-78.8L17.2,157.5z M221.9,196.9
		l-68.2,39.4v236.3l68.2,39.4V354.5l68.2,39.4v-78.8l-68.2-39.4V196.9z"/>
	<path class="st1" d="M290.1,78.8L85.5,196.9v78.8l136.4-78.8v78.8l68.2-39.4V78.8z M494.8,118.2l-68.2,39.4v78.8l68.2-39.4V118.2z
		 M358.3,275.7l-68.2,39.4v78.8l68.2-39.4V275.7z M290.1,393.8l-68.2-39.4V512l68.2-39.4V393.8z"/>
	<path class="st2" d="M290.1,0L17.2,157.5l68.2,39.4L290.1,78.8l136.4,78.8l68.2-39.4L290.1,0z M290.1,236.3l-68.2,39.4l68.2,39.4
		l68.2-39.4L290.1,236.3z"/>
</g>
</svg>
